<?xml version="1.0" encoding="UTF-8"?>
<svg version="1.1" xmlns="http://www.w3.org/2000/svg" width="1024" height="1024">
<path d="M0 0 C337.92 0 675.84 0 1024 0 C1024 337.92 1024 675.84 1024 1024 C686.08 1024 348.16 1024 0 1024 C0 686.08 0 348.16 0 0 Z " fill="#FEFEFE" transform="translate(0,0)"/>
<path d="M0 0 C1.6258338 -0.00571332 3.2516636 -0.01268127 4.87748718 -0.02079773 C9.26399097 -0.0386389 13.65029372 -0.0375778 18.0368228 -0.03185534 C21.71196429 -0.02875008 25.38706792 -0.0348708 29.062204 -0.04089409 C37.73925572 -0.05490827 46.41620891 -0.05340421 55.09326172 -0.04199219 C64.01550685 -0.03051628 72.93745119 -0.04458487 81.85965669 -0.07138866 C89.5475129 -0.09361112 97.23527514 -0.10016828 104.92316115 -0.09431225 C109.50266391 -0.09095682 114.08197398 -0.09326291 118.66144943 -0.11056328 C122.9708619 -0.126135 127.27983203 -0.12196475 131.58922768 -0.10325813 C133.16085672 -0.09960023 134.73251929 -0.10259793 136.3041172 -0.11314392 C155.02472205 -0.2290698 171.00192512 5.2559268 184.62744141 18.40405273 C190.76511336 25.37911249 195.39533534 32.69637875 198.62744141 41.40405273 C198.94583984 42.21745117 199.26423828 43.03084961 199.59228516 43.86889648 C202.57578786 52.79190688 201.88718279 62.1207034 201.62744141 71.40405273 C203.46822266 70.9206543 203.46822266 70.9206543 205.34619141 70.42749023 C229.60615125 65.07324129 255.18849762 71.0250481 275.87744141 84.15405273 C299.50404268 100.79205282 313.81817604 124.2689832 319.62744141 152.40405273 C322.21283444 168.51560915 321.85922035 188.83118612 313.62744141 203.40405273 C310.07515974 207.64946253 307.85758562 209.19366177 302.31494141 209.71655273 C295.01008324 209.09749696 290.13665704 203.26848258 285.06494141 198.40405273 C283.64086521 197.05336733 282.21638074 195.70311225 280.79150391 194.35327148 C280.08799805 193.68473145 279.38449219 193.01619141 278.65966797 192.32739258 C275.7762474 189.59846571 272.86200978 186.90397289 269.93994141 184.21655273 C268.89564128 183.25564706 267.85137038 182.29470964 266.80712891 181.33374023 C266.29118164 180.85904297 265.77523438 180.3843457 265.24365234 179.89526367 C263.51584233 178.30108489 261.7938455 176.70079375 260.07275391 175.09936523 C259.48582764 174.5543335 258.89890137 174.00930176 258.29418945 173.44775391 C257.17448886 172.40772705 256.05607613 171.36631124 254.93920898 170.32324219 C252.77971821 168.32043046 250.6448666 166.41665514 248.25634766 164.68920898 C247.71880859 164.26510742 247.18126953 163.84100586 246.62744141 163.40405273 C246.62744141 162.74405273 246.62744141 162.08405273 246.62744141 161.40405273 C240.29263787 166.74793728 234.43205106 172.49239085 228.62744141 178.40405273 C231.84960822 182.25275198 235.15292514 185.95805306 238.63037109 189.57910156 C269.94697416 222.52486255 289.40372029 266.57389563 295.62744141 311.40405273 C295.77209839 312.40154541 295.77209839 312.40154541 295.91967773 313.41918945 C296.94987373 321.80203095 296.81350419 330.25475266 296.81274414 338.68676758 C296.8149139 341.37003863 296.8330717 344.05288623 296.85205078 346.73608398 C296.9015876 361.604401 295.99126201 376.32167216 292.56494141 390.84155273 C292.35434082 391.74075439 292.14374023 392.63995605 291.92675781 393.56640625 C282.48354973 432.17710151 264.75865813 467.27480067 237.62744141 496.40405273 C236.43504019 497.77480456 235.24730258 499.14963137 234.06494141 500.52905273 C230.44916378 504.68804578 226.55957372 508.54675136 222.62744141 512.40405273 C226.72629178 520.28249629 231.65161485 527.56712401 236.62744141 534.90405273 C252.46762036 558.26062728 252.46762036 558.26062728 250.62744141 568.40405273 C248.71287195 573.4477203 245.6074386 577.39552469 240.70947266 579.77514648 C235.82229424 581.25138612 230.47431775 581.78044676 225.78067017 579.51118469 C220.50488044 576.39570135 217.45081106 573.09313964 214.20947266 567.94311523 C213.5117701 566.87992569 213.5117701 566.87992569 212.79997253 565.79525757 C211.33093244 563.54961655 209.88504423 561.2901539 208.43994141 559.02905273 C206.97898941 556.77875632 205.51345727 554.53148874 204.04777527 552.28427124 C203.14228 550.89212269 202.2404192 549.49760039 201.3429718 548.10025024 C198.5594299 543.77286761 195.64675603 539.57074064 192.62744141 535.40405273 C191.85787109 535.90291992 191.08830078 536.40178711 190.29541016 536.91577148 C167.32673512 551.42194039 142.78179545 561.42146204 116.43994141 567.71655273 C115.43181396 567.95946045 114.42368652 568.20236816 113.38500977 568.45263672 C97.8519807 571.96450604 82.25263218 572.78781635 66.37744141 572.71655273 C65.10250824 572.71381851 65.10250824 572.71381851 63.80181885 572.71102905 C50.54340915 572.66331904 37.65207199 572.0693145 24.62744141 569.40405273 C23.7822998 569.23776367 22.9371582 569.07147461 22.06640625 568.90014648 C-4.24572573 563.59349802 -29.48956781 553.70044405 -52.45947266 539.85791016 C-53.58047363 539.18272339 -53.58047363 539.18272339 -54.72412109 538.49389648 C-55.38234863 538.09033936 -56.04057617 537.68678223 -56.71875 537.27099609 C-58.35657652 536.24929092 -58.35657652 536.24929092 -60.37255859 536.40405273 C-61.58173315 537.90097108 -61.58173315 537.90097108 -62.73583984 539.89233398 C-63.20425293 540.65271973 -63.67266602 541.41310547 -64.15527344 542.1965332 C-64.66010254 543.02813965 -65.16493164 543.85974609 -65.68505859 544.71655273 C-70.09002948 551.81772781 -74.57236151 558.85225572 -79.24755859 565.77905273 C-79.77003174 566.56836182 -80.29250488 567.3576709 -80.83081055 568.17089844 C-84.28182028 573.24772208 -87.76193735 577.59874211 -93.37255859 580.40405273 C-99.81857427 580.90583839 -105.95742518 581.36634547 -111.37255859 577.40405273 C-115.5074342 573.26917712 -117.51938491 569.4983977 -117.99755859 563.65405273 C-117.77338433 553.46071702 -110.3848043 545.30980186 -104.80653381 537.23634338 C-103.50021341 535.344048 -102.19766588 533.44919285 -100.89526367 531.55419922 C-99.14369018 529.00662151 -97.37177981 526.47499182 -95.58618164 523.95117188 C-94.76193785 522.76519266 -93.93810821 521.57892547 -93.11474609 520.39233398 C-92.3707959 519.33570557 -91.6268457 518.27907715 -90.86035156 517.19042969 C-89.15537707 514.59422112 -89.15537707 514.59422112 -89.53857422 512.13232422 C-90.64057482 509.84864088 -92.01627361 508.72990103 -93.99755859 507.15405273 C-98.27676423 503.56406429 -101.7820726 499.66820277 -105.37255859 495.40405273 C-106.17306641 494.50299805 -106.97357422 493.60194336 -107.79833984 492.67358398 C-119.88704463 478.96591597 -129.99153838 463.62894261 -138.37255859 447.40405273 C-138.77571289 446.62900391 -139.17886719 445.85395508 -139.59423828 445.05541992 C-156.19182956 412.76602444 -163.84138825 378.38136965 -163.68505859 342.21655273 C-163.68290344 341.31541748 -163.68074829 340.41428223 -163.67852783 339.48583984 C-163.62653542 325.91732382 -163.15891366 312.72505094 -160.37255859 299.40405273 C-160.17919922 298.43757813 -159.98583984 297.47110352 -159.78662109 296.4753418 C-151.32016745 255.07072516 -132.03254402 217.87128842 -103.00146484 187.24389648 C-100.65858399 184.71302816 -98.4861228 182.12720283 -96.37255859 179.40405273 C-96.82695312 178.96013184 -97.28134766 178.51621094 -97.74951172 178.05883789 C-99.79569377 176.05410414 -101.83418149 174.04172057 -103.87255859 172.02905273 C-104.58798828 171.33038086 -105.30341797 170.63170898 -106.04052734 169.91186523 C-106.71728516 169.24155273 -107.39404297 168.57124023 -108.09130859 167.88061523 C-108.71972656 167.2626709 -109.34814453 166.64472656 -109.99560547 166.00805664 C-111.37255859 164.40405273 -111.37255859 164.40405273 -111.37255859 162.40405273 C-117.9263014 167.56232179 -124.00761437 172.83351531 -129.79052734 178.84936523 C-132.50269515 181.53281115 -135.33796798 184.01113465 -138.22045898 186.50805664 C-142.66009629 190.41936955 -146.90798139 194.53986447 -151.19287109 198.61889648 C-164.11390094 210.86110411 -164.11390094 210.86110411 -172.31787109 210.66577148 C-175.96784869 210.20085038 -177.69680705 208.90142084 -180.37255859 206.40405273 C-190.92167447 190.52044077 -191.73669913 166.59228262 -188.29492188 148.31640625 C-186.03133233 137.92965323 -182.28423363 127.64182407 -176.61865234 118.60717773 C-175.06130954 116.44763802 -175.06130954 116.44763802 -175.99755859 113.96655273 C-176.94201327 112.20643265 -177.94616379 110.47745973 -178.99755859 108.77905273 C-181.15430483 103.48522106 -181.4971086 97.80311632 -179.68115234 92.31420898 C-176.90767752 87.01095378 -172.85229708 83.51202099 -167.43505859 81.09155273 C-160.79076092 79.5999757 -155.39865985 80.38407555 -149.37255859 83.40405273 C-148.38255859 84.39405273 -148.38255859 84.39405273 -147.37255859 85.40405273 C-143.43140993 85.0830542 -140.29772961 82.66285248 -136.99755859 80.65405273 C-130.07245629 76.56905645 -123.11518487 73.66633765 -115.37255859 71.40405273 C-114.74889404 71.21713867 -114.12522949 71.03022461 -113.48266602 70.83764648 C-106.17227693 68.90805274 -98.82389238 69.11000486 -91.31005859 69.15405273 C-89.97346629 69.14691299 -88.63687738 69.13910459 -87.30029297 69.13061523 C-80.65046196 69.14393488 -74.72132138 69.36597857 -68.37255859 71.40405273 C-68.41896484 70.27870117 -68.46537109 69.15334961 -68.51318359 67.99389648 C-69.01091282 50.65506188 -65.71164824 35.56174571 -53.99755859 22.15405273 C-52.47329676 20.55395698 -50.93251023 18.96937425 -49.37255859 17.40405273 C-48.75767578 16.7659668 -48.14279297 16.12788086 -47.50927734 15.47045898 C-34.38792341 2.85485317 -17.46993614 -0.05582907 0 0 Z " fill="#FEFEFE" transform="translate(445.37255859375,98.595947265625)"/>
<path d="M0 0 C1.6258338 -0.00571332 3.2516636 -0.01268127 4.87748718 -0.02079773 C9.26399097 -0.0386389 13.65029372 -0.0375778 18.0368228 -0.03185534 C21.71196429 -0.02875008 25.38706792 -0.0348708 29.062204 -0.04089409 C37.73925572 -0.05490827 46.41620891 -0.05340421 55.09326172 -0.04199219 C64.01550685 -0.03051628 72.93745119 -0.04458487 81.85965669 -0.07138866 C89.5475129 -0.09361112 97.23527514 -0.10016828 104.92316115 -0.09431225 C109.50266391 -0.09095682 114.08197398 -0.09326291 118.66144943 -0.11056328 C122.9708619 -0.126135 127.27983203 -0.12196475 131.58922768 -0.10325813 C133.16085672 -0.09960023 134.73251929 -0.10259793 136.3041172 -0.11314392 C155.02472205 -0.2290698 171.00192512 5.2559268 184.62744141 18.40405273 C190.76511336 25.37911249 195.39533534 32.69637875 198.62744141 41.40405273 C198.94583984 42.21745117 199.26423828 43.03084961 199.59228516 43.86889648 C202.57578786 52.79190688 201.88718279 62.1207034 201.62744141 71.40405273 C203.46822266 70.9206543 203.46822266 70.9206543 205.34619141 70.42749023 C229.60615125 65.07324129 255.18849762 71.0250481 275.87744141 84.15405273 C299.50404268 100.79205282 313.81817604 124.2689832 319.62744141 152.40405273 C322.21283444 168.51560915 321.85922035 188.83118612 313.62744141 203.40405273 C310.07515974 207.64946253 307.85758562 209.19366177 302.31494141 209.71655273 C295.01008324 209.09749696 290.13665704 203.26848258 285.06494141 198.40405273 C283.64086521 197.05336733 282.21638074 195.70311225 280.79150391 194.35327148 C280.08799805 193.68473145 279.38449219 193.01619141 278.65966797 192.32739258 C275.7762474 189.59846571 272.86200978 186.90397289 269.93994141 184.21655273 C268.89564128 183.25564706 267.85137038 182.29470964 266.80712891 181.33374023 C266.29118164 180.85904297 265.77523438 180.3843457 265.24365234 179.89526367 C263.51584233 178.30108489 261.7938455 176.70079375 260.07275391 175.09936523 C259.48582764 174.5543335 258.89890137 174.00930176 258.29418945 173.44775391 C257.17448886 172.40772705 256.05607613 171.36631124 254.93920898 170.32324219 C252.77971821 168.32043046 250.6448666 166.41665514 248.25634766 164.68920898 C247.71880859 164.26510742 247.18126953 163.84100586 246.62744141 163.40405273 C246.62744141 162.74405273 246.62744141 162.08405273 246.62744141 161.40405273 C240.29263787 166.74793728 234.43205106 172.49239085 228.62744141 178.40405273 C231.84960822 182.25275198 235.15292514 185.95805306 238.63037109 189.57910156 C269.94697416 222.52486255 289.40372029 266.57389563 295.62744141 311.40405273 C295.77209839 312.40154541 295.77209839 312.40154541 295.91967773 313.41918945 C296.94987373 321.80203095 296.81350419 330.25475266 296.81274414 338.68676758 C296.8149139 341.37003863 296.8330717 344.05288623 296.85205078 346.73608398 C296.9015876 361.604401 295.99126201 376.32167216 292.56494141 390.84155273 C292.35434082 391.74075439 292.14374023 392.63995605 291.92675781 393.56640625 C282.48354973 432.17710151 264.75865813 467.27480067 237.62744141 496.40405273 C236.43504019 497.77480456 235.24730258 499.14963137 234.06494141 500.52905273 C230.44916378 504.68804578 226.55957372 508.54675136 222.62744141 512.40405273 C226.72629178 520.28249629 231.65161485 527.56712401 236.62744141 534.90405273 C252.46762036 558.26062728 252.46762036 558.26062728 250.62744141 568.40405273 C248.71287195 573.4477203 245.6074386 577.39552469 240.70947266 579.77514648 C235.82229424 581.25138612 230.47431775 581.78044676 225.78067017 579.51118469 C220.50488044 576.39570135 217.45081106 573.09313964 214.20947266 567.94311523 C213.5117701 566.87992569 213.5117701 566.87992569 212.79997253 565.79525757 C211.33093244 563.54961655 209.88504423 561.2901539 208.43994141 559.02905273 C206.97898941 556.77875632 205.51345727 554.53148874 204.04777527 552.28427124 C203.14228 550.89212269 202.2404192 549.49760039 201.3429718 548.10025024 C198.5594299 543.77286761 195.64675603 539.57074064 192.62744141 535.40405273 C191.85787109 535.90291992 191.08830078 536.40178711 190.29541016 536.91577148 C167.32673512 551.42194039 142.78179545 561.42146204 116.43994141 567.71655273 C115.43181396 567.95946045 114.42368652 568.20236816 113.38500977 568.45263672 C97.8519807 571.96450604 82.25263218 572.78781635 66.37744141 572.71655273 C65.10250824 572.71381851 65.10250824 572.71381851 63.80181885 572.71102905 C50.54340915 572.66331904 37.65207199 572.0693145 24.62744141 569.40405273 C23.7822998 569.23776367 22.9371582 569.07147461 22.06640625 568.90014648 C-4.24572573 563.59349802 -29.48956781 553.70044405 -52.45947266 539.85791016 C-53.58047363 539.18272339 -53.58047363 539.18272339 -54.72412109 538.49389648 C-55.38234863 538.09033936 -56.04057617 537.68678223 -56.71875 537.27099609 C-58.35657652 536.24929092 -58.35657652 536.24929092 -60.37255859 536.40405273 C-61.58173315 537.90097108 -61.58173315 537.90097108 -62.73583984 539.89233398 C-63.20425293 540.65271973 -63.67266602 541.41310547 -64.15527344 542.1965332 C-64.66010254 543.02813965 -65.16493164 543.85974609 -65.68505859 544.71655273 C-70.09002948 551.81772781 -74.57236151 558.85225572 -79.24755859 565.77905273 C-79.77003174 566.56836182 -80.29250488 567.3576709 -80.83081055 568.17089844 C-84.28182028 573.24772208 -87.76193735 577.59874211 -93.37255859 580.40405273 C-99.81857427 580.90583839 -105.95742518 581.36634547 -111.37255859 577.40405273 C-115.5074342 573.26917712 -117.51938491 569.4983977 -117.99755859 563.65405273 C-117.77338433 553.46071702 -110.3848043 545.30980186 -104.80653381 537.23634338 C-103.50021341 535.344048 -102.19766588 533.44919285 -100.89526367 531.55419922 C-99.14369018 529.00662151 -97.37177981 526.47499182 -95.58618164 523.95117188 C-94.76193785 522.76519266 -93.93810821 521.57892547 -93.11474609 520.39233398 C-92.3707959 519.33570557 -91.6268457 518.27907715 -90.86035156 517.19042969 C-89.15537707 514.59422112 -89.15537707 514.59422112 -89.53857422 512.13232422 C-90.64057482 509.84864088 -92.01627361 508.72990103 -93.99755859 507.15405273 C-98.27676423 503.56406429 -101.7820726 499.66820277 -105.37255859 495.40405273 C-106.17306641 494.50299805 -106.97357422 493.60194336 -107.79833984 492.67358398 C-119.88704463 478.96591597 -129.99153838 463.62894261 -138.37255859 447.40405273 C-138.77571289 446.62900391 -139.17886719 445.85395508 -139.59423828 445.05541992 C-156.19182956 412.76602444 -163.84138825 378.38136965 -163.68505859 342.21655273 C-163.68290344 341.31541748 -163.68074829 340.41428223 -163.67852783 339.48583984 C-163.62653542 325.91732382 -163.15891366 312.72505094 -160.37255859 299.40405273 C-160.17919922 298.43757813 -159.98583984 297.47110352 -159.78662109 296.4753418 C-151.32016745 255.07072516 -132.03254402 217.87128842 -103.00146484 187.24389648 C-100.65858399 184.71302816 -98.4861228 182.12720283 -96.37255859 179.40405273 C-96.82695312 178.96013184 -97.28134766 178.51621094 -97.74951172 178.05883789 C-99.79569377 176.05410414 -101.83418149 174.04172057 -103.87255859 172.02905273 C-104.58798828 171.33038086 -105.30341797 170.63170898 -106.04052734 169.91186523 C-106.71728516 169.24155273 -107.39404297 168.57124023 -108.09130859 167.88061523 C-108.71972656 167.2626709 -109.34814453 166.64472656 -109.99560547 166.00805664 C-111.37255859 164.40405273 -111.37255859 164.40405273 -111.37255859 162.40405273 C-117.9263014 167.56232179 -124.00761437 172.83351531 -129.79052734 178.84936523 C-132.50269515 181.53281115 -135.33796798 184.01113465 -138.22045898 186.50805664 C-142.66009629 190.41936955 -146.90798139 194.53986447 -151.19287109 198.61889648 C-164.11390094 210.86110411 -164.11390094 210.86110411 -172.31787109 210.66577148 C-175.96784869 210.20085038 -177.69680705 208.90142084 -180.37255859 206.40405273 C-190.92167447 190.52044077 -191.73669913 166.59228262 -188.29492188 148.31640625 C-186.03133233 137.92965323 -182.28423363 127.64182407 -176.61865234 118.60717773 C-175.06130954 116.44763802 -175.06130954 116.44763802 -175.99755859 113.96655273 C-176.94201327 112.20643265 -177.94616379 110.47745973 -178.99755859 108.77905273 C-181.15430483 103.48522106 -181.4971086 97.80311632 -179.68115234 92.31420898 C-176.90767752 87.01095378 -172.85229708 83.51202099 -167.43505859 81.09155273 C-160.79076092 79.5999757 -155.39865985 80.38407555 -149.37255859 83.40405273 C-148.38255859 84.39405273 -148.38255859 84.39405273 -147.37255859 85.40405273 C-143.43140993 85.0830542 -140.29772961 82.66285248 -136.99755859 80.65405273 C-130.07245629 76.56905645 -123.11518487 73.66633765 -115.37255859 71.40405273 C-114.74889404 71.21713867 -114.12522949 71.03022461 -113.48266602 70.83764648 C-106.17227693 68.90805274 -98.82389238 69.11000486 -91.31005859 69.15405273 C-89.97346629 69.14691299 -88.63687738 69.13910459 -87.30029297 69.13061523 C-80.65046196 69.14393488 -74.72132138 69.36597857 -68.37255859 71.40405273 C-68.41896484 70.27870117 -68.46537109 69.15334961 -68.51318359 67.99389648 C-69.01091282 50.65506188 -65.71164824 35.56174571 -53.99755859 22.15405273 C-52.47329676 20.55395698 -50.93251023 18.96937425 -49.37255859 17.40405273 C-48.75767578 16.7659668 -48.14279297 16.12788086 -47.50927734 15.47045898 C-34.38792341 2.85485317 -17.46993614 -0.05582907 0 0 Z M20.62744141 149.40405273 C19.26184082 149.7255127 19.26184082 149.7255127 17.86865234 150.0534668 C-33.15958188 162.50689376 -77.54237328 195.68916927 -105.56005859 239.84155273 C-115.8558013 257.05015125 -124.12240559 275.53502629 -128.80517578 295.06274414 C-129.17539277 296.59044677 -129.56330919 298.1139997 -129.97119141 299.63208008 C-133.65593939 313.54185294 -133.74444997 327.48676274 -133.74755859 341.77905273 C-133.74946198 342.72576843 -133.75136536 343.67248413 -133.75332642 344.64788818 C-133.74959605 361.06327925 -132.59927473 376.51655646 -128.12255859 392.40405273 C-127.65740845 394.08313721 -127.65740845 394.08313721 -127.18286133 395.79614258 C-118.17060402 427.71119338 -101.86338004 456.12635082 -78.76904297 479.96069336 C-77.46323393 481.31033375 -76.17500633 482.67692275 -74.88818359 484.04467773 C-68.27038874 490.92199396 -60.98201819 496.68552931 -53.37255859 502.40405273 C-52.82116211 502.82686523 -52.26976562 503.24967773 -51.70166016 503.68530273 C-21.03507436 527.14808207 18.95302286 541.40460147 57.62744141 542.40405273 C58.4140918 542.4245166 59.20074219 542.44498047 60.01123047 542.46606445 C102.32732988 543.40763268 144.84427893 532.1347923 179.62744141 507.40405273 C180.63548828 506.68733398 181.64353516 505.97061523 182.68212891 505.23217773 C226.33039815 473.26123766 256.1559158 427.89830329 265.17089844 374.16479492 C273.01905905 322.4931913 261.06970196 269.93567862 230.42993164 227.42138672 C223.81652038 218.46732851 216.41136466 210.34720294 208.62744141 202.40405273 C208.0528418 201.81043945 207.47824219 201.21682617 206.88623047 200.60522461 C203.13194623 196.77398274 199.24889286 193.30355767 195.00244141 190.02905273 C194.39835449 189.56063965 193.79426758 189.09222656 193.171875 188.60961914 C182.20768242 180.17848383 170.87031473 172.83170567 158.62744141 166.40405273 C157.96260742 166.05455566 157.29777344 165.70505859 156.61279297 165.3449707 C128.65443108 150.89007626 97.93887283 144.95742402 66.68994141 145.02905273 C65.79247192 145.02959656 64.89500244 145.03014038 63.97033691 145.03070068 C49.22282617 145.07164234 35.02646701 145.9875992 20.62744141 149.40405273 Z " fill="#505B63" transform="translate(445.37255859375,98.595947265625)"/>
<path d="M0 0 C7.26 0 14.52 0 22 0 C22.01458252 2.68970947 22.02916504 5.37941895 22.04418945 8.15063477 C22.09457567 17.04751945 22.161178 25.94422985 22.23571491 34.84094334 C22.28040065 40.23387209 22.31966089 45.62672561 22.34643555 51.01977539 C22.37248622 56.22649963 22.41290149 61.43293408 22.46318626 66.63947868 C22.47984298 68.62370124 22.49136469 70.60797391 22.49761391 72.59225655 C22.50726789 75.3763463 22.53534293 78.15969667 22.56762695 80.94360352 C22.56619186 81.76000305 22.56475677 82.57640259 22.5632782 83.4175415 C22.6490212 88.66201724 23.51997229 92.34982152 26 97 C30.26150892 100.72688257 33.38211962 101.50477295 38.97265625 101.49609375 C40.28427734 101.49673828 41.59589844 101.49738281 42.94726562 101.49804688 C43.961073 101.48245728 43.961073 101.48245728 44.99536133 101.46655273 C47.06087295 101.43752287 49.12382371 101.44597447 51.18945312 101.45898438 C59.62232898 101.60957455 59.62232898 101.60957455 67 98 C68.66349319 94.67301363 68.24378057 90.93570615 68.31640625 87.2734375 C68.3475779 85.97921371 68.3475779 85.97921371 68.37937927 84.65884399 C68.44486034 81.89764507 68.50375298 79.13634962 68.5625 76.375 C68.6056866 74.50519828 68.64930093 72.63540638 68.69335938 70.765625 C68.80134674 66.1771809 68.90043062 61.58866547 69 57 C76.26 57 83.52 57 91 57 C91.05607422 60.55974609 91.05607422 60.55974609 91.11328125 64.19140625 C91.15958898 66.50830927 91.21078873 68.82505662 91.26245117 71.1418457 C91.29555592 72.74298519 91.32363221 74.34423732 91.34643555 75.94555664 C91.38024982 78.25715817 91.43257451 80.56774078 91.48828125 82.87890625 C91.49786613 83.9402755 91.49786613 83.9402755 91.50764465 85.02308655 C91.67662054 90.82952105 92.74611171 95.55027081 96.76171875 99.91479492 C99.8665653 101.42014428 102.36919809 101.37176116 105.8125 101.36328125 C106.46323486 101.36377975 107.11396973 101.36427826 107.78442383 101.36479187 C109.15611841 101.36245815 110.52781782 101.35277093 111.89941406 101.33618164 C113.99323005 101.31257632 116.08577208 101.31562686 118.1796875 101.32226562 C126.03465526 101.78683394 126.03465526 101.78683394 133 99 C135.12773443 94.43984161 135.33377949 89.93024149 135.4140625 84.9765625 C135.43342865 84.23038666 135.4527948 83.48421082 135.4727478 82.71542358 C135.53212065 80.35206223 135.5787578 77.98865103 135.625 75.625 C135.66321884 74.01430268 135.7022728 72.40362494 135.7421875 70.79296875 C135.83934629 66.86208603 135.91924712 62.93139033 136 59 C143.26 59 150.52 59 158 59 C158.05607422 62.93679688 158.05607422 62.93679688 158.11328125 66.953125 C158.15950835 69.49829385 158.21073762 72.04331632 158.26245117 74.58837891 C158.29568069 76.35554083 158.32371882 78.12280839 158.34643555 79.89013672 C158.38001831 82.43242351 158.43233451 84.97374408 158.48828125 87.515625 C158.49786613 88.69865204 158.49786613 88.69865204 158.50764465 89.90557861 C158.59455289 93.15666737 158.77409418 95.58535391 160.34448242 98.46777344 C162.03013561 100.2391074 162.03013561 100.2391074 165 101 C165.1546875 99.25976562 165.1546875 99.25976562 165.3125 97.484375 C165.87377207 93.05266431 167.18117109 89.31060611 169 85.25 C169.30615234 84.56043213 169.61230469 83.87086426 169.92773438 83.16040039 C173.07581198 76.37333987 177.12810407 70.69260958 182 65 C182.57492187 64.32453125 183.14984375 63.6490625 183.7421875 62.953125 C194.38376044 51.44596958 209.81612363 45.25001451 225.16015625 43.67578125 C238.76329737 43.1869447 251.74898391 46.50518701 261.91796875 55.7421875 C268.21929732 62.21817976 273.02110199 71.94300675 272.99365234 81.12280273 C272.89354499 84.49274324 272.79135664 87.85990212 272.609375 91.2265625 C272.58875 92.0515625 272.568125 92.8765625 272.546875 93.7265625 C272.51432617 94.47502441 272.48177734 95.22348633 272.44824219 95.99462891 C272.8417109 98.20266534 272.8417109 98.20266534 275.0400238 99.59831238 C278.71528615 101.33872156 281.92822382 101.44020254 285.91137695 101.43237305 C286.69239273 101.4425647 287.47340851 101.45275635 288.27809143 101.46325684 C290.84822808 101.49334432 293.41799175 101.50264613 295.98828125 101.51171875 C297.7747674 101.52856861 299.56124172 101.54671927 301.34770203 101.56611633 C306.04119163 101.61358917 310.73463325 101.64341609 315.42828369 101.66955566 C320.22116573 101.69937489 325.01388248 101.74590055 329.80664062 101.79101562 C339.20434058 101.87701783 348.60207457 101.94437685 358 102 C357.56304941 99.94481897 357.11568401 97.89185079 356.6640625 95.83984375 C356.2920874 94.12462524 356.2920874 94.12462524 355.91259766 92.37475586 C353.7689807 84.44773147 349.71421156 78.40118549 342.6171875 74.18359375 C327.29496048 67.2542881 311.41662755 69.86112415 296 75 C296 67.41 296 59.82 296 52 C314.7567348 46.06674715 333.62865432 43.87585818 352.125 52.125 C365.37814104 59.22033114 373.90630858 71.14636139 379 85 C380.4914476 90.45677292 382 96.33719835 382 102 C386.32424398 101.98053689 390.64654982 101.92869569 394.9699707 101.84741211 C396.43925947 101.82428007 397.90871292 101.8098476 399.37817383 101.80444336 C401.49664345 101.79511721 403.61254065 101.75405873 405.73046875 101.70703125 C407.00301514 101.6913208 408.27556152 101.67561035 409.58666992 101.65942383 C414.04200938 100.79869342 415.44792795 99.75416954 418 96 C418.71484067 92.69682221 418.72152068 89.4758293 418.70703125 86.10546875 C418.72215256 85.15811356 418.73727386 84.21075836 418.75285339 83.23469543 C418.79572747 80.21872144 418.8045682 77.20374837 418.8125 74.1875 C418.8356445 72.13864527 418.86100974 70.08981434 418.88867188 68.04101562 C418.95569057 63.02679898 418.97665296 58.01536966 419 53 C426.26 53 433.52 53 441 53 C441.12414067 60.50726376 441.21459764 68.01392224 441.2746582 75.52197266 C441.29971127 78.07285987 441.33376328 80.62367595 441.37719727 83.17431641 C441.43825144 86.85336927 441.46630348 90.53146821 441.48828125 94.2109375 C441.51408768 95.34050873 441.5398941 96.47007996 441.56648254 97.63388062 C441.56909141 105.09710598 440.31543916 110.80581891 436 117 C427.47973336 125.4387866 417.73837162 125.30043433 406.33886719 125.30639648 C404.96800796 125.31402976 403.59715298 125.32245924 402.2263031 125.33161926 C398.52153535 125.35345625 394.81685008 125.36234854 391.11202526 125.36744571 C388.79153419 125.37110217 386.4710643 125.37734884 384.15058136 125.3844471 C376.03836631 125.40890425 367.92621486 125.42198536 359.81396484 125.42553711 C352.27941328 125.42916931 344.7452698 125.45905141 337.21084285 125.50094169 C330.71966323 125.53575281 324.22861817 125.55108741 317.73734593 125.55178314 C313.87034728 125.55257229 310.003765 125.56114254 306.13686371 125.58978081 C302.49552423 125.61614835 298.85494085 125.61806445 295.21354866 125.60212517 C293.25972316 125.59947511 291.30591112 125.62136628 289.35221863 125.64431763 C280.3473445 125.57051748 271.49581204 124.17679482 264.66476059 117.83046627 C264.1153896 117.2264124 263.5660186 116.62235853 263 116 C260.01231241 117.12038285 257.35241671 118.36500149 254.5625 119.9375 C243.79333353 125.32333303 231.6628505 125.4554807 219.890625 125.3984375 C218.38759216 125.40046605 216.88456029 125.40338391 215.38153076 125.40713501 C212.25865137 125.41151632 209.13603232 125.4052611 206.01318359 125.39111328 C202.03704407 125.37396375 198.06150978 125.38392534 194.085392 125.40183067 C190.99161309 125.41273223 187.89797501 125.4091942 184.80419159 125.4014473 C183.33876216 125.39946593 181.87331936 125.40183077 180.40790558 125.40888596 C168.65222017 125.45311727 159.35805968 124.52713496 150 117 C149.54625 117.5775 149.0925 118.155 148.625 118.75 C140.81697599 125.44259201 131.55570912 125.63584095 121.75073242 125.52148438 C119.56901499 125.50006397 117.3906012 125.52135614 115.20898438 125.546875 C103.16586 125.57184956 93.80745356 123.61173237 85 115 C84.48050781 115.48210937 83.96101562 115.96421875 83.42578125 116.4609375 C73.67292771 125.2943908 64.67210339 125.21574771 51.875 125.3125 C50.61945313 125.34150391 49.36390625 125.37050781 48.0703125 125.40039062 C38.6351311 125.46400959 29.99643858 124.33095906 22 119 C21.85304688 119.94359375 21.70609375 120.8871875 21.5546875 121.859375 C19.49993541 133.62105937 16.23397303 145.71298255 6 153 C-8.77655688 161.78314222 -23.17539999 164.23060436 -40 160 C-49.70465707 157.3223431 -57.33639575 151.3848866 -62.9375 143 C-67.27805583 134.98634427 -68.55541427 127.56971194 -68.5 118.5 C-68.49645508 117.45207275 -68.49291016 116.40414551 -68.48925781 115.32446289 C-68.23032775 103.04498608 -65.34046112 92.52679121 -59 82 C-53.27789404 83.86763181 -47.62338249 85.85289032 -42 88 C-42.20496094 88.78503906 -42.40992188 89.57007813 -42.62109375 90.37890625 C-47.52061665 109.47275678 -47.52061665 109.47275678 -43.265625 128.1640625 C-39.95215789 132.97063516 -35.75520726 135.82764297 -30 137 C-21.47784755 137.80281146 -13.21465102 137.25760919 -6.33984375 131.64453125 C-0.23162299 125.00206378 -0.6977807 116.63341206 -0.68115234 108.18969727 C-0.67110672 107.01824661 -0.6610611 105.84679596 -0.65071106 104.6398468 C-0.61991136 100.7820381 -0.60285254 96.92429872 -0.5859375 93.06640625 C-0.56722328 90.38597104 -0.54774529 87.70555228 -0.5272522 85.02513123 C-0.48056529 78.70010609 -0.44377257 72.37506409 -0.41057932 66.04995531 C-0.3722864 58.84552204 -0.32289515 51.64117803 -0.27259517 44.43682015 C-0.16942547 29.62461125 -0.08158148 14.81234496 0 0 Z " fill="#4E5A62" transform="translate(320,732)"/>
<path d="M0 0 C1.54158857 -0.00599177 3.08317416 -0.0127988 4.62475586 -0.02035522 C8.79425828 -0.03795464 12.9636785 -0.04270798 17.13321447 -0.0439868 C19.74247552 -0.04541218 22.35171593 -0.04968906 24.96097183 -0.05498123 C34.07588265 -0.07346014 43.19073513 -0.08165436 52.30566406 -0.08007812 C60.78312599 -0.0788767 69.26033334 -0.09998465 77.73773086 -0.13156545 C85.03311696 -0.15776813 92.32842009 -0.16844378 99.62385285 -0.16716731 C103.97360905 -0.16665893 108.32313871 -0.1722734 112.67284775 -0.19352341 C116.7655149 -0.21297382 120.85774093 -0.21298423 124.95042419 -0.19849014 C126.44591547 -0.19640948 127.94143486 -0.2010584 129.4368782 -0.21321106 C141.2819756 -0.30317915 150.40061205 1.57548125 159.70361328 9.23193359 C169.23968445 18.84093839 170.40920924 30.20126332 170.61328125 43.08813477 C170.40800099 52.36313181 170.40800099 52.36313181 167.35986328 55.56787109 C164.37158203 57.60302734 164.37158203 57.60302734 161.34814453 59.02880859 C158.66336292 60.06381347 158.66336292 60.06381347 157.41845703 62.24365234 C156.37394596 65.42576747 156.39682485 67.96783409 156.74658203 71.29052734 C159.82631695 76.21493638 163.84929955 78.30993821 168.80908203 80.97802734 C177.39585429 85.77363614 185.63185432 91.02471219 193.80908203 96.47802734 C194.37885773 96.85535004 194.94863342 97.23267273 195.53567505 97.62142944 C202.90383947 102.50702898 209.94693203 107.63868356 216.74658203 113.29052734 C215.38816183 116.333855 213.86195179 118.41361885 211.48876953 120.74365234 C210.55097656 121.67177734 210.55097656 121.67177734 209.59423828 122.61865234 C208.94326172 123.25287109 208.29228516 123.88708984 207.62158203 124.54052734 C206.96287109 125.19021484 206.30416016 125.83990234 205.62548828 126.50927734 C204.00361561 128.10764462 202.37725393 129.70114632 200.74658203 131.29052734 C197.18497715 130.05715676 194.31246091 128.40109612 191.24707031 126.2199707 C166.07264432 108.35911923 136.82980532 97.44986328 106.74658203 91.29052734 C105.44793213 91.02369141 105.44793213 91.02369141 104.12304688 90.75146484 C53.97347269 81.08037803 -1.51065198 90.23311211 -46.25341797 114.29052734 C-47.24470703 114.80357422 -48.23599609 115.31662109 -49.25732422 115.84521484 C-56.94793553 119.89290501 -64.74095829 124.41670255 -71.35107422 130.09130859 C-73.25341797 131.29052734 -73.25341797 131.29052734 -75.15429688 131.05419922 C-79.08266109 129.62503857 -81.66472134 126.39093415 -84.56591797 123.47802734 C-85.22398437 122.84832031 -85.88205078 122.21861328 -86.56005859 121.56982422 C-87.176875 120.95558594 -87.79369141 120.34134766 -88.42919922 119.70849609 C-88.99550049 119.14928467 -89.56180176 118.59007324 -90.14526367 118.01391602 C-91.25341797 116.29052734 -91.25341797 116.29052734 -91.1015625 114.2253418 C-89.66464129 110.94739115 -86.66892053 109.28013072 -83.81591797 107.29052734 C-83.14995605 106.81558838 -82.48399414 106.34064941 -81.79785156 105.85131836 C-79.627325 104.31467793 -77.44315468 102.79965081 -75.25341797 101.29052734 C-74.52783691 100.7889209 -73.80225586 100.28731445 -73.0546875 99.77050781 C-64.2421273 93.71126246 -55.29233693 87.96961194 -45.99804688 82.67504883 C-38.03420972 78.57366633 -38.03420972 78.57366633 -32.25341797 72.29052734 C-31.56820146 67.39612371 -31.66889783 64.20169109 -34.37841797 59.97802734 C-37.06265543 57.15603972 -37.06265543 57.15603972 -40.39404297 55.97802734 C-43.85871331 52.72161588 -43.7378664 51.70971742 -43.97998047 47.09130859 C-43.97732056 44.59498669 -43.9421765 42.0985363 -43.87841797 39.60302734 C-43.88808594 37.74000977 -43.88808594 37.74000977 -43.89794922 35.83935547 C-43.77461302 25.26047313 -41.48446604 17.90365252 -34.23779297 10.14599609 C-23.89621507 0.47621361 -13.53095722 -0.01051471 0 0 Z " fill="#FEFEFE" transform="translate(449.25341796875,126.70947265625)"/>
<path d="M0 0 C5.62562327 2.97202739 9.18828946 5.6009695 11.3125 11.75 C12.43149356 19.77970101 10.98143976 24.2881378 6.3125 30.75 C3.81017926 33.63370852 1.12635726 36.30692211 -1.59545898 38.98266602 C-2.76715637 40.15261108 -2.76715637 40.15261108 -3.96252441 41.34619141 C-6.52929873 43.90581686 -9.10642108 46.45475453 -11.68359375 49.00390625 C-13.47884286 50.79101089 -15.27335167 52.57885947 -17.06715393 54.36741638 C-21.30087678 58.58580059 -25.54084984 62.79779305 -29.78433424 67.0063495 C-37.82819357 74.984478 -45.85780786 82.97692244 -53.8861866 90.97062492 C-56.51679377 93.58732721 -59.15121196 96.20014331 -61.78623962 98.81239319 C-63.40762761 100.42375207 -65.02893419 102.03519286 -66.65014648 103.64672852 C-67.37812943 104.36640305 -68.10611237 105.08607758 -68.8561554 105.82756042 C-72.55330525 109.50867295 -76.08265822 113.25322296 -79.42233944 117.26294708 C-81.37805977 119.56167479 -83.53119639 121.64021924 -85.6875 123.75 C-86.851528 124.92575878 -88.01327452 126.10377853 -89.17333984 127.28344727 C-92.70138787 130.86506538 -96.23871262 134.43736822 -99.77929688 138.0065918 C-101.30055714 139.54298007 -102.81911964 141.08204428 -104.33496094 142.6237793 C-106.53648837 144.86183967 -108.74769152 147.0899412 -110.9609375 149.31640625 C-111.63095795 150.00191055 -112.30097839 150.68741486 -112.99130249 151.39369202 C-118.36828566 156.77256704 -123.57595804 161.31006876 -131.5625 161.375 C-132.50867188 161.40851563 -133.45484375 161.44203125 -134.4296875 161.4765625 C-145.58717716 158.9882015 -154.12205879 147.75196784 -161.86328125 139.97265625 C-163.32013471 138.51782684 -164.77743298 137.06344274 -166.2351532 135.60948181 C-169.27665653 132.57238341 -172.31271317 129.52997124 -175.3449707 126.48364258 C-179.22278387 122.58870837 -183.11395293 118.70744023 -187.00928974 114.83004093 C-190.01650788 111.83368398 -193.01651891 108.83019299 -196.01442528 105.82452202 C-197.44629237 104.39066098 -198.88037117 102.95900492 -200.31673622 101.52964973 C-202.32440058 99.5296415 -204.32213645 97.52020189 -206.31762695 95.50805664 C-206.90625519 94.9255011 -207.49488342 94.34294556 -208.10134888 93.74273682 C-213.39400649 88.36835059 -217.29757776 82.80605977 -217.8515625 75.08984375 C-217.46325099 69.55178193 -215.11368869 65.14053397 -211.1875 61.3125 C-206.66223594 58.48420996 -203.75445112 57.438426 -198.3125 57.375 C-197.21164062 57.34664063 -196.11078125 57.31828125 -194.9765625 57.2890625 C-188.65546021 58.17491769 -184.50128612 62.68830103 -180.14111328 67.06933594 C-179.62329788 67.58685928 -179.10548248 68.10438263 -178.57197571 68.6375885 C-176.87913086 70.33181523 -175.19346166 72.0329915 -173.5078125 73.734375 C-172.3285533 74.9173684 -171.14884874 76.099918 -169.96871948 77.28204346 C-166.87693382 80.38143355 -163.79120398 83.48678434 -160.70672607 86.59344482 C-157.55293379 89.76776445 -154.39341064 92.93636871 -151.234375 96.10546875 C-145.04648236 102.31475499 -138.86498004 108.53035449 -132.6875 114.75 C-129.61263447 113.37850763 -127.50435531 111.81548894 -125.1315918 109.43701172 C-124.45376144 108.762258 -123.77593109 108.08750427 -123.07756042 107.39230347 C-121.9930938 106.29705856 -121.9930938 106.29705856 -120.88671875 105.1796875 C-120.13211868 104.42462921 -119.37751862 103.66957092 -118.60005188 102.89163208 C-117.00321261 101.29177249 -115.40880373 99.68948395 -113.81665039 98.08496094 C-111.39970127 95.64988651 -108.97497835 93.22277849 -106.54882812 90.796875 C-104.99432161 89.2374476 -103.44027068 87.67756589 -101.88671875 86.1171875 C-101.16981369 85.39916962 -100.45290863 84.68115173 -99.71427917 83.94137573 C-99.02699234 83.24770905 -98.33970551 82.55404236 -97.6315918 81.83935547 C-97.03742966 81.24138153 -96.44326752 80.64340759 -95.83110046 80.02731323 C-93.95475507 78.03392582 -92.158674 76.00065971 -90.36712646 73.93161011 C-87.00011295 70.06494126 -83.48565476 66.38766842 -79.86938477 62.75488281 C-79.22772369 62.10665054 -78.58606262 61.45841827 -77.92495728 60.7905426 C-75.82912689 58.67521598 -73.72948565 56.56373525 -71.62890625 54.453125 C-70.90612928 53.72627251 -70.18335232 52.99942001 -69.43867302 52.25054169 C-65.6198646 48.41098383 -61.7978677 44.57463182 -57.97338867 40.74072266 C-54.03655623 36.79278706 -50.11155042 32.83330399 -46.18901157 28.87117386 C-43.15612047 25.81211059 -40.11435078 22.76199286 -37.07014275 19.71419525 C-35.61917737 18.2583737 -34.17157834 16.79918859 -32.72751045 15.33652496 C-30.70602936 13.29061765 -28.67219728 11.2577913 -26.63500977 9.22753906 C-26.04826981 8.62798904 -25.46152985 8.02843903 -24.85700989 7.41072083 C-17.51941736 0.16336606 -10.22141759 -3.46488732 0 0 Z " fill="#515B63" transform="translate(614.6875,343.25)"/>
<path d="M0 0 C4.07948204 3.01314261 6.01266975 6.49823315 7.62890625 11.203125 C8.16863974 16.081755 8.28012448 20.64020126 6.37890625 25.203125 C2.42282421 29.72436162 -1.4842157 31.2233803 -7.37109375 32.203125 C-11.5715879 32.46341438 -15.75766624 32.43653656 -19.96484375 32.3984375 C-21.1521106 32.3956076 -22.33937744 32.39277771 -23.56262207 32.38986206 C-27.33221776 32.37872098 -31.1015706 32.35362726 -34.87109375 32.328125 C-37.43619447 32.31808737 -40.00129894 32.30896289 -42.56640625 32.30078125 C-48.83471743 32.27880151 -55.10288823 32.2453845 -61.37109375 32.203125 C-56.36829179 16.78068501 -46.43931341 6.60155844 -32.30078125 -0.89453125 C-23.18224326 -4.7386208 -8.69569058 -4.83282999 0 0 Z " fill="#FDFDFD" transform="translate(562.37109375,801.796875)"/>
<path d="M0 0 C4.36045847 2.22136563 7.13277421 4.43567029 9 9 C9.53635899 13.82723092 9.52017901 15.97890786 7.3125 20.3125 C3.73770791 24.4669881 1.56223989 25.82641779 -3.9375 26.4375 C-8.2150513 26.25994127 -10.73416458 24.81013746 -14 22 C-16.96636412 18.44036306 -17.48428792 15.42254895 -17.28125 10.921875 C-16.6454898 6.5775136 -14.55298267 4.47582229 -11.3125 1.6875 C-7.29397091 -0.35967519 -4.41870053 -0.87315639 0 0 Z " fill="#4D5861" transform="translate(766,743)"/>
<path d="M0 0 C4.36045847 2.22136563 7.13277421 4.43567029 9 9 C9.53635899 13.82723092 9.52017901 15.97890786 7.3125 20.3125 C3.73770791 24.4669881 1.56223989 25.82641779 -3.9375 26.4375 C-8.2150513 26.25994127 -10.73416458 24.81013746 -14 22 C-16.88516342 18.5378039 -17.53917865 15.51203116 -17.3515625 10.9921875 C-16.57919747 6.61545234 -14.06326048 3.8860504 -10.75 1.125 C-7.10164042 -0.36751074 -3.84747819 -0.67896674 0 0 Z " fill="#4C575F" transform="translate(732,743)"/>
<path d="M0 0 C3.4275548 1.67894453 5.46244208 4.11186083 7.4375 7.375 C8.40320821 11.88163833 7.62182519 15.55998377 5.8125 19.75 C2.83610236 23.44483845 -0.36012944 24.76085221 -5 25.4375 C-9.58095052 24.76944472 -12.58405828 22.58074254 -15.64453125 19.1640625 C-18.03768785 15.34328798 -17.75260743 11.34459741 -17 7 C-13.1215754 -0.16790324 -7.5565851 -1.03149705 0 0 Z " fill="#4D5860" transform="translate(386,872)"/>
<path d="M0 0 C3.12578143 1.6720747 5.39281175 3.7856235 7 7 C7.41654299 11.52589985 7.51073318 15.66641891 5.875 19.9375 C2.93466531 23.17186816 0.23346132 24.8660711 -4.21484375 25.1328125 C-8.54717922 24.88772197 -10.55615251 24.36062608 -14 21.5625 C-17.20586684 17.45498311 -17.3890062 14.66957123 -17.359375 9.55078125 C-16.78039966 5.44131496 -15.00085071 3.78650423 -12 1 C-8.27533151 -0.86233425 -4.05504687 -0.57130829 0 0 Z " fill="#4C5860" transform="translate(418,872)"/>
<path d="M0 0 C-1.32 0.33 -2.64 0.66 -4 1 C-4 7.27 -4 13.54 -4 20 C-2.02 19.67 -0.04 19.34 2 19 C0 21 0 21 -6 23 C-6 15.41 -6 7.82 -6 0 C-3 -1 -3 -1 0 0 Z " fill="#36434D" transform="translate(622,784)"/>
<path d="M0 0 C0.75 1.6875 0.75 1.6875 1 4 C-0.30368347 5.68996005 -1.64444707 7.35135455 -3 9 C-4.47188882 11.94377764 -5.75282135 14.95502659 -7 18 C-8 15 -8 15 -6.6015625 11.6796875 C-5.95287044 10.40623054 -5.29356847 9.13813508 -4.625 7.875 C-4.13 6.90626953 -4.13 6.90626953 -3.625 5.91796875 C-1.18313718 1.18313718 -1.18313718 1.18313718 0 0 Z " fill="#36434C" transform="translate(496,805)"/>
<path d="M0 0 C1.20220203 3.53094302 0.79532349 6.12898982 0.0625 9.75 C-0.13214844 10.73484375 -0.32679688 11.7196875 -0.52734375 12.734375 C-0.68332031 13.48203125 -0.83929688 14.2296875 -1 15 C-1.66 15 -2.32 15 -3 15 C-2.22095672 4.44191344 -2.22095672 4.44191344 0 0 Z " fill="#414D56" transform="translate(291,375)"/>
<path d="M0 0 C1.16110175 3.48330526 0.77231701 4.51852696 -0.3125 7.9375 C-0.57675781 8.79214844 -0.84101563 9.64679687 -1.11328125 10.52734375 C-1.92698652 12.79639852 -2.87027359 14.87374636 -4 17 C-3.63223832 10.69732561 -2.83374078 5.66748157 0 0 Z " fill="#34414A" transform="translate(257,823)"/>
<path d="M0 0 C-1 2 -2 4 -3 6 C-3.66 6 -4.32 6 -5 6 C-5.33 8.31 -5.66 10.62 -6 13 C-6.33 13 -6.66 13 -7 13 C-6.65225015 4.86265342 -6.65225015 4.86265342 -4.0625 1.4375 C-2 0 -2 0 0 0 Z " fill="#39444E" transform="translate(756,745)"/>
<path d="M0 0 C0.66 0.33 1.32 0.66 2 1 C-0.97 3.64 -3.94 6.28 -7 9 C-7.33 8.34 -7.66 7.68 -8 7 C-3.76744186 1.25581395 -3.76744186 1.25581395 0 0 Z " fill="#3D4A52" transform="translate(408,402)"/>
</svg>
